<svg xmlns="http://www.w3.org/2000/svg" viewBox="0 0 900 560"><defs>
<linearGradient id="bg" x1="0" y1="0" x2="1" y2="1"><stop offset="0" stop-color="#151c38"/><stop offset="1" stop-color="#0d1226"/></linearGradient>
<linearGradient id="acc" x1="0" y1="0" x2="1" y2="1"><stop offset="0" stop-color="#8b7bff"/><stop offset="1" stop-color="#22d3ee"/></linearGradient></defs>
<rect width="900" height="560" rx="24" fill="url(#bg)"/><text x="40" y="62" font-family="system-ui, -apple-system, 'Segoe UI', Roboto, sans-serif" font-size="22" font-weight="800" fill="#eef1ff">Boards that match how you work</text>
<rect x="40" y="80" width="120" height="6" rx="3" fill="url(#acc)"/><rect x="40" y="120" width="260" height="400" rx="16" fill="#10172e" stroke="#222b4b"/><rect x="56" y="140" width="228" height="100" rx="12" fill="#18213f" stroke="#26305a"/><rect x="72" y="156" width="60" height="14" rx="7" fill="url(#acc)"/><rect x="72" y="186" width="160" height="8" rx="3" fill="#3a4670"/><rect x="72" y="202" width="110" height="8" rx="3" fill="#3a4670"/><rect x="56" y="258" width="228" height="100" rx="12" fill="#18213f" stroke="#26305a"/><rect x="72" y="274" width="60" height="14" rx="7" fill="url(#acc)"/><rect x="72" y="304" width="160" height="8" rx="3" fill="#3a4670"/><rect x="72" y="320" width="110" height="8" rx="3" fill="#3a4670"/><rect x="56" y="376" width="228" height="100" rx="12" fill="#18213f" stroke="#26305a"/><rect x="72" y="392" width="60" height="14" rx="7" fill="url(#acc)"/><rect x="72" y="422" width="160" height="8" rx="3" fill="#3a4670"/><rect x="72" y="438" width="110" height="8" rx="3" fill="#3a4670"/><rect x="320" y="120" width="260" height="400" rx="16" fill="#10172e" stroke="#222b4b"/><rect x="336" y="140" width="228" height="100" rx="12" fill="#18213f" stroke="#26305a"/><rect x="352" y="156" width="60" height="14" rx="7" fill="url(#acc)"/><rect x="352" y="186" width="160" height="8" rx="3" fill="#3a4670"/><rect x="352" y="202" width="110" height="8" rx="3" fill="#3a4670"/><rect x="336" y="258" width="228" height="100" rx="12" fill="#18213f" stroke="#26305a"/><rect x="352" y="274" width="60" height="14" rx="7" fill="url(#acc)"/><rect x="352" y="304" width="160" height="8" rx="3" fill="#3a4670"/><rect x="352" y="320" width="110" height="8" rx="3" fill="#3a4670"/><rect x="336" y="376" width="228" height="100" rx="12" fill="#18213f" stroke="#26305a"/><rect x="352" y="392" width="60" height="14" rx="7" fill="url(#acc)"/><rect x="352" y="422" width="160" height="8" rx="3" fill="#3a4670"/><rect x="352" y="438" width="110" height="8" rx="3" fill="#3a4670"/><rect x="600" y="120" width="260" height="400" rx="16" fill="#10172e" stroke="#222b4b"/><rect x="616" y="140" width="228" height="100" rx="12" fill="#18213f" stroke="#26305a"/><rect x="632" y="156" width="60" height="14" rx="7" fill="url(#acc)"/><rect x="632" y="186" width="160" height="8" rx="3" fill="#3a4670"/><rect x="632" y="202" width="110" height="8" rx="3" fill="#3a4670"/><rect x="616" y="258" width="228" height="100" rx="12" fill="#18213f" stroke="#26305a"/><rect x="632" y="274" width="60" height="14" rx="7" fill="url(#acc)"/><rect x="632" y="304" width="160" height="8" rx="3" fill="#3a4670"/><rect x="632" y="320" width="110" height="8" rx="3" fill="#3a4670"/><rect x="616" y="376" width="228" height="100" rx="12" fill="#18213f" stroke="#26305a"/><rect x="632" y="392" width="60" height="14" rx="7" fill="url(#acc)"/><rect x="632" y="422" width="160" height="8" rx="3" fill="#3a4670"/><rect x="632" y="438" width="110" height="8" rx="3" fill="#3a4670"/></svg>